<?xml version="1.0" standalone="no"?><!DOCTYPE svg PUBLIC "-//W3C//DTD SVG 1.1//EN" "http://www.w3.org/Graphics/SVG/1.1/DTD/svg11.dtd"><svg t="1617273568895" class="icon" viewBox="0 0 1024 1024" version="1.1" xmlns="http://www.w3.org/2000/svg" p-id="804" xmlns:xlink="http://www.w3.org/1999/xlink" width="200" height="200"><defs><style type="text/css"></style></defs><path d="M502.46210938 511.128125a32.99589844 32.99589844 0 0 1-33.61376954-32.26464845V94.43427734C468.84833984 76.55908203 483.91279297 62 502.46210938 62c18.60644531 0 33.72714844 14.61533203 33.72714843 32.43427734v384.26044922a33.05214844 33.05214844 0 0 1-33.67089843 32.43339844z m-10.11796875 450.25312501a437.15566406 437.15566406 0 0 1-304.10332032-121.52900392 413.49023438 413.49023438 0 0 1-92.18671875-131.87109375 402.02314453 402.02314453 0 0 1 15.45820313-354.01992187 424.67695312 424.67695312 0 0 1 130.86035156-144.68730469 34.45751953 34.45751953 0 0 1 46.99248046 7.53222656 31.59052734 31.59052734 0 0 1-7.86972656 45.13710938 358.96552734 358.96552734 0 0 0-110.39941406 122.203125A334.73847655 334.73847655 0 0 0 129.55712891 546.37402345c0 93.53583984 37.77451172 181.45019531 106.35205078 247.55449218a367.171875 367.171875 0 0 0 256.54833984 102.5296875A367.396875 367.396875 0 0 0 749.00585938 793.98388672a341.54033203 341.54033203 0 0 0 106.23955079-247.61074219 334.45722656 334.45722656 0 0 0-41.42724611-162.22587891 358.62890625 358.62890625 0 0 0-110.56816406-122.0915039 31.59052734 31.59052734 0 0 1-8.26259766-44.51923829l0.5625-0.67412109a34.40126953 34.40126953 0 0 1 46.93535157-7.53222656 424.11445313 424.11445313 0 0 1 130.80410156 144.63105469 401.63027344 401.63027344 0 0 1 15.51445312 354.01904297A412.92773438 412.92773438 0 0 1 796.61621094 839.90849609a430.57880859 430.57880859 0 0 1-136.70595703 88.92597657 442.49589844 442.49589844 0 0 1-167.56611328 32.54589843z" p-id="805" fill="#2c2c2c"></path></svg>