<?xml version="1.0" standalone="no"?><!DOCTYPE svg PUBLIC "-//W3C//DTD SVG 1.1//EN" "http://www.w3.org/Graphics/SVG/1.1/DTD/svg11.dtd"><svg t="1617544078576" class="icon" viewBox="0 0 1024 1024" version="1.1" xmlns="http://www.w3.org/2000/svg" p-id="3321" xmlns:xlink="http://www.w3.org/1999/xlink" width="200" height="200"><defs><style type="text/css"></style></defs><path d="M512 960.06c-60.34 0-118.88-11.82-174.01-35.14-53.24-22.52-101.04-54.75-142.09-95.79s-73.28-88.85-95.79-142.09c-23.32-55.13-35.14-113.68-35.14-174.01 0-60.34 11.82-118.88 35.14-174.01 22.52-53.24 54.75-101.04 95.79-142.09s88.85-73.28 142.09-95.79C393.12 77.81 451.66 65.99 512 65.99c60.34 0 118.88 11.82 174.01 35.14 53.24 22.52 101.04 54.75 142.09 95.79s73.28 88.85 95.79 142.09c23.32 55.13 35.14 113.68 35.14 174.01 0 60.34-11.82 118.88-35.14 174.01-22.52 53.24-54.75 101.04-95.79 142.09s-88.85 73.28-142.09 95.79c-55.13 23.32-113.67 35.15-174.01 35.15z m0-844.07c-218.93 0-397.03 178.11-397.03 397.04S293.07 910.06 512 910.06s397.03-178.11 397.03-397.03S730.93 115.99 512 115.99z" fill="#565656" p-id="3322"></path><path d="M678.33 539.23H345.06c-13.81 0-25-11.19-25-25s11.19-25 25-25h333.27c13.81 0 25 11.19 25 25s-11.19 25-25 25z" fill="#565656" p-id="3323"></path><path d="M513.74 703.43c-13.81 0-25-11.19-25-25V345.16c0-13.81 11.19-25 25-25s25 11.19 25 25v333.27c0 13.81-11.2 25-25 25z" fill="#565656" p-id="3324"></path></svg>